HIERARCHY
ROOT Hips
{
 OFFSET 0.000000 0.000000 0.000000
 CHANNELS 6 Xposition Yposition Zposition Yrotation Xrotation Zrotation
 JOINT Chest
 {
  OFFSET 0.000000 9.585900 0.002600
  CHANNELS 3 Yrotation Xrotation Zrotation
  JOINT Chest2
  {
   OFFSET 0.000000 9.601200 -0.005300
   CHANNELS 3 Yrotation Xrotation Zrotation
   JOINT Chest3
   {
    OFFSET 0.000000 9.561800 0.000000
    CHANNELS 3 Yrotation Xrotation Zrotation
    JOINT Chest4
    {
     OFFSET 0.000000 9.552100 0.000000
     CHANNELS 3 Yrotation Xrotation Zrotation
     JOINT Neck
     {
      OFFSET 0.000000 14.453000 0.000000
      CHANNELS 3 Yrotation Xrotation Zrotation
      JOINT Head
      {
       OFFSET 0.000000 8.936500 -0.011300
       CHANNELS 3 Yrotation Xrotation Zrotation
       End Site
       {
        OFFSET 0.000000 17.073600 -0.006000
       }
      }
     }
     JOINT RightCollar
     {
      OFFSET -2.921100 9.558500 0.000000
      CHANNELS 3 Yrotation Xrotation Zrotation
      JOINT RightShoulder
      {
       OFFSET -13.519700 0.000000 0.000000
       CHANNELS 3 Yrotation Xrotation Zrotation
       JOINT RightElbow
       {
        OFFSET 0.000000 -29.696600 0.000000
        CHANNELS 3 Yrotation Xrotation Zrotation
        JOINT RightWrist
        {
         OFFSET 0.000000 -24.004700 0.000000
         CHANNELS 3 Yrotation Xrotation Zrotation
         End Site
         {
          OFFSET 0.000000 -17.728500 0.000000
         }
        }
       }
      }
     }
     JOINT LeftCollar
     {
      OFFSET 2.921100 9.558500 0.000000
      CHANNELS 3 Yrotation Xrotation Zrotation
      JOINT LeftShoulder
      {
       OFFSET 13.519700 0.000000 0.000000
       CHANNELS 3 Yrotation Xrotation Zrotation
       JOINT LeftElbow
       {
        OFFSET 0.000000 -29.696600 0.000000
        CHANNELS 3 Yrotation Xrotation Zrotation
        JOINT LeftWrist
        {
         OFFSET 0.000000 -24.004700 0.000000
         CHANNELS 3 Yrotation Xrotation Zrotation
         End Site
         {
          OFFSET 0.000000 -17.728500 0.000000
         }
        }
       }
      }
     }
    }
   }
  }
 }
 JOINT RightHip
 {
  OFFSET -7.771700 -0.012900 -0.001300
  CHANNELS 3 Yrotation Xrotation Zrotation
  JOINT RightKnee
  {
   OFFSET 0.000000 -40.869800 0.001200
   CHANNELS 3 Yrotation Xrotation Zrotation
   JOINT RightAnkle
   {
    OFFSET 0.000000 -39.717900 0.002100
    CHANNELS 3 Yrotation Xrotation Zrotation
    JOINT RightToe
    {
     OFFSET 0.000000 -4.965400 11.033500
     CHANNELS 3 Yrotation Xrotation Zrotation
     End Site
     {
      OFFSET 0.000000 -1.423100 5.872300
     }
    }
   }
  }
 }
 JOINT LeftHip
 {
  OFFSET 7.771700 -0.012900 -0.001300
  CHANNELS 3 Yrotation Xrotation Zrotation
  JOINT LeftKnee
  {
   OFFSET 0.000000 -40.869800 0.001200
   CHANNELS 3 Yrotation Xrotation Zrotation
   JOINT LeftAnkle
   {
    OFFSET 0.000000 -39.717900 0.002100
    CHANNELS 3 Yrotation Xrotation Zrotation
    JOINT LeftToe
    {
     OFFSET 0.000000 -4.965400 11.033500
     CHANNELS 3 Yrotation Xrotation Zrotation
     End Site
     {
      OFFSET 0.000000 -1.423100 5.872300
     }
    }
   }
  }
 }
}
MOTION
Frames: 15
Frame Time: 0.008333
0.000000 85.388000 0.000000 0.000000 -5.767877 0.000000 0.000000 11.653817 0.000000 0.000000 -5.885947 0.000000 0.000000 -0.000000 0.000000 0.000000 -0.000000 0.000000 0.000000 12.528835 0.000000 0.000000 0.711642 0.000000 0.000000 -0.000000 0.000000 0.000000 0.000000 -90.000000 0.000000 -2.309062 0.000000 0.000000 2.309062 0.000000 0.000000 -0.000000 0.000000 0.000000 -0.000000 90.000000 0.000000 -2.309062 0.000000 0.000000 2.309062 0.000000 0.000000 8.520406 0.000000 0.000000 1.905762 0.000000 -0.000000 -4.658285 0.000000 0.000000 -0.000000 0.000000 0.000000 8.520406 0.000000 0.000000 1.905762 0.000000 -0.000000 -4.658285 0.000000 0.000000 -0.000000 0.000000
-109.413922 51.640760 -43.639853 177.895850 -22.792103 -0.415734 -5.579686 11.839137 -0.120667 -0.440400 0.928764 0.095731 -0.730336 1.599626 0.164807 -4.846008 10.792134 0.713548 -3.702072 10.573264 -0.594084 -3.894255 -14.575323 0.339829 2.495175 15.673471 9.997298 11.696221 -12.465857 -40.683862 144.939563 -36.944085 170.492217 -5.990342 0.035010 -16.971909 -6.042981 12.681638 -15.419909 -49.381592 -8.899325 48.834654 -151.178338 -59.335302 -169.957754 19.296456 -15.085219 -0.992960 -12.497203 -60.066648 7.331233 -86.337682 77.638447 -95.137595 -4.605418 -11.623394 8.372338 0.438058 -1.112806 0.256014 9.410119 -57.722142 -8.244999 32.440329 83.892937 38.088962 -2.925556 -11.671927 0.180758 0.346346 0.742815 0.130437
-109.426593 51.639190 -43.648127 177.883069 -22.851669 -0.425561 -5.622519 11.843561 -0.141570 -0.431002 0.943682 0.101304 -0.732167 1.605620 0.168055 -4.822053 10.819155 0.723591 -3.737515 10.538163 -0.496032 -3.832789 -14.550486 0.300338 2.475339 15.665883 10.036660 11.842403 -12.485893 -40.617514 144.789606 -36.983532 170.652924 -5.880364 0.095514 -17.084717 -6.075524 12.656258 -15.399642 -49.330774 -8.911707 48.801572 -151.179538 -59.302834 -169.981821 19.325993 -15.120910 -0.983511 -12.433628 -60.001968 7.279760 -86.372597 77.614981 -95.159806 -4.584382 -11.669591 8.390621 0.428163 -1.076688 0.242408 9.349125 -57.669933 -8.260727 32.960929 83.879635 38.653845 -2.863495 -11.674890 0.173264 0.321177 0.729924 0.086045
-109.428763 51.639781 -43.661927 177.806863 -22.956790 -0.483864 -5.581838 11.911729 -0.085909 -0.432038 0.947304 0.103246 -0.733868 1.611564 0.171371 -4.824256 10.837684 0.741150 -3.703263 10.551411 -0.495406 -3.827219 -14.525772 0.347122 2.485512 15.671071 10.047921 11.965148 -12.485217 -40.572613 144.670416 -37.029845 170.757118 -5.753879 0.164505 -17.189870 -6.082264 12.638656 -15.392809 -49.374162 -8.861629 48.823467 -151.121756 -59.313665 -169.957393 19.325407 -15.110646 -0.942399 -12.426876 -59.876631 7.359282 -86.379856 77.616556 -95.147684 -4.572129 -11.684403 8.398387 0.413696 -1.069943 0.226513 9.236320 -57.586554 -8.127172 33.361842 83.905234 39.120483 -2.793425 -11.702380 0.111657 0.307247 0.717647 0.089200
-109.434622 51.638443 -43.671443 177.762089 -23.041189 -0.539510 -5.560989 11.969149 -0.037343 -0.444555 0.940059 0.102005 -0.735649 1.617354 0.174546 -4.873664 10.840892 0.777308 -3.626711 10.583674 -0.524327 -3.811528 -14.476894 0.381945 2.534053 15.693362 10.030038 12.076767 -12.473553 -40.547504 144.568730 -37.078320 170.842273 -5.610455 0.250050 -17.289629 -6.036454 12.642373 -15.424808 -49.384573 -8.837563 48.825547 -151.117132 -59.298401 -169.946082 19.308082 -15.092666 -0.892251 -12.441279 -59.774432 7.425805 -86.395524 77.625575 -95.149523 -4.575755 -11.715281 8.407208 0.405381 -1.051516 0.215124 9.129042 -57.521673 -8.020216 33.629227 83.927255 39.440305 -2.738518 -11.726349 0.063351 0.293548 0.713658 0.099729
-109.443433 51.634940 -43.675271 177.720138 -23.097186 -0.581139 -5.556860 11.986725 -0.006753 -0.445864 0.943669 0.103747 -0.737730 1.623291 0.177420 -4.876659 10.859681 0.793568 -3.610200 10.646268 -0.464114 -3.752518 -14.453621 0.343277 2.562093 15.703907 10.024073 12.165889 -12.472832 -40.504215 144.466325 -37.133557 170.931880 -5.465377 0.331854 -17.365823 -6.003656 12.648431 -15.442224 -49.381750 -8.833213 48.822984 -151.172717 -59.259526 -169.937548 19.259209 -15.074040 -0.829757 -12.450928 -59.699834 7.477869 -86.379859 77.640675 -95.118667 -4.606611 -11.781908 8.435800 0.420215 -0.996295 0.187438 9.053566 -57.481759 -7.939948 33.748644 83.950246 39.607389 -2.734404 -11.754355 0.048220 0.329407 0.721679 0.090034
-109.453861 51.630317 -43.675117 177.703960 -23.136465 -0.621474 -5.588239 11.978009 0.009203 -0.435936 0.958033 0.108417 -0.740102 1.629260 0.180004 -4.881472 10.878136 0.807579 -3.576287 10.698809 -0.451370 -3.716672 -14.398785 0.348661 2.591421 15.712475 10.021640 12.218256 -12.464428 -40.493266 144.413567 -37.196241 170.973612 -5.344564 0.390527 -17.400120 -6.005184 12.630596 -15.432090 -49.393527 -8.788119 48.826141 -151.202878 -59.236434 -169.873986 19.243387 -15.043352 -0.776586 -12.477409 -59.643539 7.516593 -86.359850 77.652167 -95.082930 -4.636124 -11.857923 8.464091 0.420103 -0.956297 0.165785 8.984534 -57.456423 -7.867959 33.798328 83.964118 39.677190 -2.737376 -11.781035 0.030436 0.348107 0.739632 0.105211
-109.462471 51.628279 -43.678910 177.660520 -23.212035 -0.655744 -5.580422 12.020081 0.032734 -0.437183 0.961347 0.109801 -0.742096 1.634742 0.182308 -4.884745 10.895316 0.820115 -3.541412 10.757390 -0.440758 -3.679239 -14.337625 0.351520 2.598001 15.718637 10.039605 12.293011 -12.446176 -40.504105 144.358566 -37.264711 171.019182 -5.260915 0.419231 -17.383994 -6.041657 12.594322 -15.399757 -49.334154 -8.777987 48.786366 -151.272059 -59.196013 -169.816252 19.291489 -15.007766 -0.722571 -12.473872 -59.550094 7.548964 -86.328845 77.668399 -95.034786 -4.660503 -11.920972 8.485806 0.430266 -0.899135 0.144382 8.914543 -57.394143 -7.786731 34.170087 83.956798 40.065992 -2.707434 -11.796153 0.023154 0.326831 0.741881 0.090170
-109.473286 51.626289 -43.680584 177.620390 -23.282660 -0.671898 -5.569458 12.066775 0.041985 -0.437810 0.963707 0.110754 -0.752921 1.632607 0.182750 -4.863958 10.916435 0.827791 -3.525012 10.815830 -0.424763 -3.640642 -14.272674 0.351696 2.581119 15.723358 10.068098 12.384499 -12.411462 -40.422798 144.233908 -37.277187 171.150489 -5.210049 0.424897 -17.329932 -6.040158 12.590135 -15.396896 -49.323151 -8.769441 48.781741 -151.372780 -59.150185 -169.772547 19.313302 -14.978862 -0.671210 -12.441872 -59.466538 7.543407 -86.292434 77.683724 -94.983960 -4.675227 -11.989477 8.510358 0.438923 -0.859372 0.130721 8.854344 -57.337243 -7.768030 34.660181 83.942494 40.594911 -2.624380 -11.788566 -0.001160 0.272120 0.721752 0.067261
-109.482160 51.622668 -43.675688 177.578540 -23.319996 -0.693100 -5.562537 12.074931 0.058857 -0.438680 0.967020 0.111933 -0.744306 1.643275 0.185512 -4.854851 10.929960 0.832084 -3.506014 10.879500 -0.411119 -3.600475 -14.205828 0.346872 2.568976 15.733618 10.104404 12.420958 -12.372517 -40.406124 144.224851 -37.303996 171.173269 -5.179552 0.377108 -17.291948 -6.036855 12.586833 -15.392636 -49.311597 -8.761924 48.777085 -151.423995 -59.126788 -169.741412 19.315521 -14.968136 -0.645793 -12.429100 -59.415534 7.561243 -86.198112 77.692326 -94.872949 -4.674894 -12.042201 8.531323 0.423674 -0.863447 0.132586 8.814410 -57.313197 -7.725758 34.813125 83.945779 40.777039 -2.591972 -11.797408 -0.021617 0.253576 0.720087 0.079522
-109.490502 51.621001 -43.672481 177.561005 -23.376153 -0.718846 -5.585977 12.097088 0.067015 -0.439890 0.971272 0.113507 -0.736480 1.656289 0.189321 -4.876520 10.942716 0.846884 -3.451020 10.948603 -0.420403 -3.559019 -14.139504 0.336298 2.585833 15.749236 10.113945 12.448129 -12.326759 -40.383351 144.243859 -37.325573 171.185131 -5.136871 0.389767 -17.233828 -6.030145 12.573932 -15.367977 -49.264229 -8.774412 48.747061 -151.570620 -59.063127 -169.658860 19.255167 -14.948432 -0.568737 -12.433987 -59.350723 7.579695 -86.163619 77.700452 -94.832017 -4.687431 -12.075293 8.552332 0.420798 -0.859670 0.128559 8.762662 -57.267562 -7.674957 34.853929 83.952826 40.839965 -2.586858 -11.808407 -0.037359 0.267921 0.726189 0.088316
-109.495760 51.619364 -43.666163 177.532180 -23.420135 -0.751354 -5.586229 12.120789 0.092384 -0.422821 0.984008 0.118000 -0.756089 1.650487 0.189324 -4.859835 10.958640 0.852017 -3.430094 10.998752 -0.417952 -3.516949 -14.056549 0.324003 2.528447 15.778159 10.160630 12.516693 -12.280133 -40.395562 144.275149 -37.343442 171.191454 -5.090406 0.417799 -17.200192 -6.029645 12.570796 -15.354589 -49.244494 -8.769817 48.744587 -151.723044 -58.996222 -169.573125 19.238123 -14.933056 -0.519954 -12.450049 -59.296473 7.623379 -86.082910 77.698590 -94.736612 -4.683969 -12.085271 8.550219 0.425812 -0.852354 0.130227 8.706394 -57.235017 -7.602782 34.812012 83.959192 40.821227 -2.582389 -11.817798 -0.046910 0.290287 0.735650 0.087493
-109.502032 51.617194 -43.655584 177.484835 -23.442302 -0.763492 -5.571724 12.125091 0.107023 -0.404929 0.994643 0.122554 -0.748033 1.656804 0.191090 -4.920145 10.971466 0.877183 -3.365188 11.058593 -0.444301 -3.476028 -13.989345 0.309751 2.566041 15.779566 10.130581 12.508405 -12.231611 -40.344802 144.306221 -37.355612 171.197248 -5.033410 0.452156 -17.203316 -5.981432 12.557827 -15.377332 -49.235338 -8.752669 48.742065 -151.817665 -58.939679 -169.509413 19.246213 -14.928845 -0.510487 -12.389917 -59.260907 7.590970 -85.922732 77.700426 -94.536205 -4.619871 -12.115566 8.552850 0.389484 -0.819608 0.114384 8.682960 -57.224140 -7.576232 35.031216 83.942806 41.065855 -2.538811 -11.805378 -0.071711 0.270011 0.728868 0.079325
-109.505802 51.617560 -43.647682 177.452357 -23.487648 -0.787639 -5.567128 12.156418 0.127492 -0.410832 0.993442 0.121204 -0.748814 1.661744 0.193169 -4.905316 10.991105 0.886405 -3.335523 11.144940 -0.442828 -3.435624 -13.937773 0.294638 2.567785 15.783058 10.125200 12.496132 -12.178697 -40.288928 144.327005 -37.366292 171.218185 -4.949493 0.520034 -17.237686 -5.963056 12.551477 -15.383941 -49.238693 -8.680815 48.728459 -151.839471 -58.863389 -169.464457 19.275149 -14.946036 -0.531619 -12.380313 -59.202716 7.609012 -85.815181 77.693893 -94.410544 -4.593030 -12.128341 8.559034 0.372347 -0.821717 0.111862 8.645041 -57.188283 -7.506774 34.974386 83.945550 41.022024 -2.542111 -11.806437 -0.078631 0.283132 0.731320 0.087543
-109.510581 51.619831 -43.641205 177.440344 -23.546218 -0.805302 -5.580868 12.201658 0.133337 -0.442634 0.984068 0.118241 -0.721095 1.679016 0.198370 -4.880341 11.001194 0.888581 -3.317422 11.218370 -0.437836 -3.393253 -13.869902 0.282121 2.487620 15.819592 10.130033 12.561627 -12.136743 -40.252517 144.315650 -37.382947 171.274617 -4.833120 0.622548 -17.296083 -5.967182 12.552166 -15.370003 -49.217665 -8.665833 48.704856 -151.845048 -58.820400 -169.452833 19.326562 -14.960477 -0.578008 -12.366915 -59.134945 7.598757 -85.757190 77.700975 -94.341485 -4.568676 -12.143057 8.564095 0.356698 -0.842854 0.124613 8.608545 -57.137347 -7.470605 35.020352 83.939061 41.084145 -2.536261 -11.791842 -0.086441 0.284630 0.721194 0.089268
